# xmcd
# Copyright (C) 1995-1998 Ti Kan
#
# Track frame offsets:
#       150
#       13560
#       27404
#       50318
#       67293
#       81817
#       95502
#       117097
#       131158
#       149459
#       162731
#       175987
#       192455
#       206623
#
# Disc length: 2987 seconds
#
# Revision: 0
# Processed by: cddbd v1.5.2PL0 Copyright (c) Steve Scherf et al.
# Submitted via: CD-Import v1.0
#
DISCID=d10ba90e
DTITLE=Holmes Brothers - Feed My Soul
DYEAR=2010
DGENRE=
TTITLE0=Dark Cloud
TTITLE1=Edge Of The Ledge
TTITLE2=Feed My Soul
TTITLE3=You're The Kind Of Trouble
TTITLE4=Something Is Missing
TTITLE5=Living Well Is The Best Revenge
TTITLE6=I Saw Your Face
TTITLE7=I Believe You I Think
TTITLE8=Fair Weather Friend
TTITLE9=Put My Foot Down
TTITLE10=I'll Be Back
TTITLE11=Pledging My Love
TTITLE12=Rounding Third
TTITLE13=Take Me Away
EXTD=
EXTT0=
EXTT1=
EXTT2=
EXTT3=
EXTT4=
EXTT5=
EXTT6=
EXTT7=
EXTT8=
EXTT9=
EXTT10=
EXTT11=
EXTT12=
EXTT13=
PLAYORDER=
